Crispy-ExtraLight.ufo
<glyph name="exclam" format="2">
  <advance width="269"/>
  <unicode hex="0021"/>
  <outline>
    <contour>
      <point x="67" y="118" type="line" identifier="1m237t4hyw"/>
      <point x="168" y="118" type="line" identifier="S4rO5KuHiL"/>
      <point x="179" y="166" type="line"/>
      <point x="179" y="1600" type="line" identifier="zfocDyDTCM"/>
      <point x="79" y="1600" type="line" identifier="v7N4yg5XNk"/>
      <point x="67" y="1566" type="line"/>
    </contour>
    <component base="period" xOffset="31"/>
  </outline>
</glyph>
<glyph name="comma" format="2">
  <advance width="358"/>
  <unicode hex="002C"/>
  <outline>
    <contour>
      <point x="229" y="-277" type="line"/>
      <point x="270" y="0" type="line"/>
      <point x="270" y="75" type="line"/>
      <point x="177" y="75" type="line"/>
      <point x="163" y="52" type="line"/>
      <point x="163" y="0" type="line"/>
      <point x="216" y="0" type="line"/>
      <point x="216" y="-277" type="line"/>
    </contour>
  </outline>
</glyph>
<glyph name="period" format="2">
  <advance width="272"/>
  <unicode hex="002E"/>
  <outline>
    <contour>
      <point x="169" y="0" type="line" identifier="1m237t4hyw"/>
      <point x="182" y="20" type="line" identifier="v7N4yg5XNk"/>
      <point x="182" y="84" type="line"/>
      <point x="80" y="84" type="line" identifier="zfocDyDTCM"/>
      <point x="66" y="64" type="line"/>
      <point x="66" y="0" type="line" identifier="S4rO5KuHiL"/>
    </contour>
  </outline>
</glyph>
<glyph name="zero" format="2">
  <advance width="1691"/>
  <unicode hex="0030"/>
  <outline>
    <contour>
      <point x="181" y="0" type="line" identifier="4KX3b3mGg4"/>
      <point x="1510" y="0" type="line" identifier="V2j8wYP0nr"/>
      <point x="1510" y="1600" type="line" identifier="NaxGoenf3y"/>
      <point x="181" y="1600" type="line" identifier="rx6fJSLiri"/>
    </contour>
    <contour>
      <point x="288" y="78" type="line"/>
      <point x="288" y="1522" type="line"/>
      <point x="1402" y="1522" type="line"/>
      <point x="1402" y="78" type="line"/>
    </contour>
  </outline>
</glyph>
<glyph name="two" format="2">
  <advance width="1571"/>
  <unicode hex="0032"/>
  <outline>
    <contour>
      <point x="130" y="0" type="line"/>
      <point x="1441" y="0" type="line" identifier="pzdvPTirLJ"/>
      <point x="1441" y="411" type="line"/>
      <point x="1333" y="411" type="line"/>
      <point x="1333" y="71" type="line"/>
      <point x="239" y="71" type="line"/>
      <point x="239" y="754" type="line"/>
      <point x="1436" y="754" type="line" identifier="yyb1NCCI5w"/>
      <point x="1436" y="1600" type="line" identifier="5FogYRSgkk"/>
      <point x="134" y="1600" type="line" identifier="svlFvrau4c"/>
      <point x="134" y="1125" type="line" identifier="LQ9fBsTy9K"/>
      <point x="241" y="1125" type="line"/>
      <point x="241" y="1529" type="line"/>
      <point x="1328" y="1529" type="line"/>
      <point x="1328" y="819" type="line"/>
      <point x="130" y="819" type="line" identifier="teVKnpBcVb"/>
    </contour>
  </outline>
</glyph>
<glyph name="three" format="2">
  <advance width="1484"/>
  <unicode hex="0033"/>
  <outline>
    <contour>
      <point x="70" y="0" type="line" identifier="O9abUc1nmN"/>
      <point x="1401" y="0" type="line" identifier="kMJYMTfXCq"/>
      <point x="1401" y="837" type="line" identifier="su2XmdS8e8"/>
      <point x="1288" y="837" type="line" identifier="JQaOzDQqlF"/>
      <point x="1288" y="1600" type="line" identifier="xg8x2Ki40p"/>
      <point x="96" y="1600" type="line" identifier="pE1XSRiy68"/>
      <point x="96" y="1112" type="line" identifier="5lNstGRcSF"/>
      <point x="203" y="1112" type="line" identifier="AcE5xKDZfE"/>
      <point x="203" y="1529" type="line" identifier="7ogBYufWpl"/>
      <point x="1180" y="1529" type="line" identifier="RHLvSX2Jv6"/>
      <point x="1180" y="837" type="line" identifier="iic1IBkDqp"/>
      <point x="350" y="837" type="line" identifier="lRLJEhXMlO"/>
      <point x="350" y="768" type="line" identifier="8aKgEELrVU"/>
      <point x="1293" y="768" type="line" identifier="Dm8zjmbhNr"/>
      <point x="1293" y="71" type="line" identifier="xv9CFHiFgB"/>
      <point x="177" y="71" type="line" identifier="YajKQV3MHP"/>
      <point x="177" y="435" type="line" identifier="36SchVkwze"/>
      <point x="70" y="435" type="line" identifier="tVui9PiOjA"/>
    </contour>
  </outline>
</glyph>
<glyph name="four" format="2">
  <advance width="1477"/>
  <unicode hex="0034"/>
  <outline>
    <contour>
      <point x="1158" y="0" type="line"/>
      <point x="1266" y="0" type="line"/>
      <point x="1266" y="765" type="line"/>
      <point x="1407" y="765" type="line"/>
      <point x="1407" y="840" type="line"/>
      <point x="1266" y="840" type="line"/>
      <point x="1266" y="1600" type="line"/>
      <point x="1158" y="1600" type="line"/>
      <point x="1158" y="840" type="line"/>
      <point x="178" y="840" type="line"/>
      <point x="178" y="972" type="line"/>
      <point x="178" y="1615" type="line"/>
      <point x="70" y="1615" type="line"/>
      <point x="70" y="971" type="line"/>
      <point x="70" y="765" type="line"/>
      <point x="1158" y="765" type="line"/>
    </contour>
  </outline>
</glyph>
<glyph name="six" format="2">
  <advance width="1585"/>
  <unicode hex="0036"/>
  <outline>
    <contour>
      <point x="130" y="0" type="line" identifier="uiw6aBUf4P"/>
      <point x="1456" y="0" type="line" identifier="jtYkxiUX6G"/>
      <point x="1456" y="831" type="line" identifier="2G5L37c87I"/>
      <point x="238" y="831" type="line"/>
      <point x="238" y="1332" type="line"/>
      <point x="391" y="1529" type="line"/>
      <point x="1348" y="1529" type="line"/>
      <point x="1348" y="1121" type="line"/>
      <point x="1455" y="1121" type="line" identifier="Wuidbv6mUe"/>
      <point x="1455" y="1600" type="line" identifier="oGvEEuxnYv"/>
      <point x="311" y="1600" type="line" identifier="xR3pEHbMJx"/>
      <point x="130" y="1349" type="line" identifier="KnMArb0tv8"/>
    </contour>
    <contour>
      <point x="1348" y="760" type="line"/>
      <point x="1348" y="71" type="line"/>
      <point x="238" y="71" type="line"/>
      <point x="238" y="760" type="line"/>
    </contour>
  </outline>
</glyph>
<glyph name="seven" format="2">
  <advance width="1582"/>
  <unicode hex="0037"/>
  <outline>
    <contour>
      <point x="722" y="0" type="line"/>
      <point x="835" y="0" type="line" identifier="PiPrv7Kcoy"/>
      <point x="1452" y="1365" type="line" identifier="PkvwNC9Tx1"/>
      <point x="1452" y="1600" type="line" identifier="tgqM27bPOm"/>
      <point x="130" y="1600" type="line" identifier="36ml4xRICt"/>
      <point x="130" y="1081" type="line" identifier="aaDZsh5Mah"/>
      <point x="238" y="1081" type="line"/>
      <point x="238" y="1526" type="line"/>
      <point x="1328" y="1526" type="line"/>
      <point x="1328" y="1374" type="line"/>
    </contour>
  </outline>
</glyph>
<glyph name="eight" format="2">
  <advance width="1627"/>
  <unicode hex="0038"/>
  <outline>
    <contour>
      <point x="1245" y="764" type="line"/>
      <point x="1383" y="653" type="line"/>
      <point x="1383" y="71" type="line"/>
      <point x="244" y="71" type="line"/>
      <point x="244" y="652" type="line"/>
      <point x="382" y="764" type="line"/>
    </contour>
    <contour>
      <point x="1347" y="799" type="line"/>
      <point x="1347" y="801" type="line"/>
      <point x="1487" y="917" type="line"/>
      <point x="1487" y="1600" type="line"/>
      <point x="139" y="1600" type="line"/>
      <point x="139" y="917" type="line"/>
      <point x="280" y="801" type="line"/>
      <point x="280" y="799" type="line"/>
      <point x="136" y="677" type="line"/>
      <point x="136" y="0" type="line"/>
      <point x="1491" y="0" type="line"/>
      <point x="1491" y="677" type="line"/>
    </contour>
    <contour>
      <point x="382" y="836" type="line"/>
      <point x="247" y="942" type="line"/>
      <point x="247" y="1529" type="line"/>
      <point x="1380" y="1529" type="line"/>
      <point x="1380" y="942" type="line"/>
      <point x="1245" y="836" type="line"/>
    </contour>
  </outline>
</glyph>
<glyph name="B" format="2">
  <advance width="1547"/>
  <unicode hex="0042"/>
  <outline>
    <contour>
      <point x="133" y="0" type="line" identifier="hvY9r8RmLr"/>
      <point x="1286" y="0" type="line" identifier="9QFpw7nfq7"/>
      <point x="1463" y="292" type="line"/>
      <point x="1463" y="835" type="line" identifier="543PerILpr"/>
      <point x="1328" y="835" type="line" identifier="zhomauHW30"/>
      <point x="1328" y="1600" type="line" identifier="FaP204GrdB"/>
      <point x="133" y="1600" type="line" identifier="JEev70GAj6"/>
    </contour>
    <contour>
      <point x="240" y="72" type="line" identifier="jaMSiLrCua"/>
      <point x="240" y="764" type="line" identifier="XSrxNd2axx"/>
      <point x="1356" y="764" type="line" identifier="lsRGatjQja"/>
      <point x="1356" y="306" type="line"/>
      <point x="1203" y="72" type="line" identifier="xhlDJ3CjD5"/>
    </contour>
    <contour>
      <point x="240" y="835" type="line" identifier="By7dfMihfe"/>
      <point x="240" y="1528" type="line" identifier="1p5hKrurVy"/>
      <point x="1225" y="1528" type="line" identifier="Qby8aMtF2X"/>
      <point x="1225" y="835" type="line" identifier="xpxyvIzPoc"/>
    </contour>
  </outline>
</glyph>
<glyph name="D" format="2">
  <advance width="1569"/>
  <unicode hex="0044"/>
  <outline>
    <contour>
      <point x="132" y="0" type="line" identifier="IF8msvcgce"/>
      <point x="1307" y="0" type="line" identifier="ydeACnPZN4"/>
      <point x="1485" y="289" type="line" identifier="wIy2omw5Da"/>
      <point x="1485" y="1600" type="line" identifier="gh4oopoKIn"/>
      <point x="132" y="1600" type="line" identifier="hTYdJwlqIh"/>
    </contour>
    <contour>
      <point x="240" y="74" type="line" identifier="YShvMHvurg"/>
      <point x="240" y="1526" type="line" identifier="OGdfzPVlic"/>
      <point x="1378" y="1526" type="line" identifier="4w8cXO1HlF"/>
      <point x="1378" y="306" type="line" identifier="5OFemp6E2Y"/>
      <point x="1223" y="74" type="line" identifier="DiLdvAK6bW"/>
    </contour>
  </outline>
</glyph>
<glyph name="E" format="2">
  <advance width="1532"/>
  <unicode hex="0045"/>
  <outline>
    <contour>
      <point x="182" y="0" type="line" identifier="fZynkQ4XHB"/>
      <point x="1350" y="0" type="line" identifier="FAQNpgUPxV"/>
      <point x="1350" y="482" type="line" identifier="gHI0YjrPxR"/>
      <point x="1250" y="482" type="line" identifier="gxCIuXb4el"/>
      <point x="1250" y="71" type="line" identifier="5cgTYOhATF"/>
      <point x="289" y="71" type="line" identifier="bWs42DaCgU"/>
      <point x="289" y="764" type="line" identifier="VtD2aADJmn"/>
      <point x="1179" y="764" type="line" identifier="PpbsFdHAnS"/>
      <point x="1179" y="836" type="line" identifier="8WuC5p8Ax5"/>
      <point x="289" y="836" type="line" identifier="m39IWn9ntA"/>
      <point x="289" y="1529" type="line" identifier="gQ21I4SHQg"/>
      <point x="1249" y="1529" type="line" identifier="eqNb2VTwYs"/>
      <point x="1249" y="1111" type="line" identifier="mLmcFoJA4m"/>
      <point x="1349" y="1111" type="line" identifier="e79n7CoPy1"/>
      <point x="1349" y="1600" type="line" identifier="qYRmo14Il5"/>
      <point x="182" y="1600" type="line" identifier="HmJIcnLWfC"/>
    </contour>
  </outline>
</glyph>
<glyph name="J" format="2">
  <advance width="1499"/>
  <unicode hex="004A"/>
  <outline>
    <contour>
      <point x="131" y="0" type="line" identifier="jiO9eX9U07"/>
      <point x="1323" y="0" type="line" identifier="wgpFs1yguc"/>
      <point x="1323" y="1600" type="line" identifier="d5Di3vNzni"/>
      <point x="1215" y="1600" type="line" identifier="46RrD1WET2"/>
      <point x="1215" y="74" type="line" identifier="zFXsE8BUYG"/>
      <point x="234" y="74" type="line" identifier="NQmE31PUns"/>
      <point x="234" y="656" type="line" identifier="qiXxY6YhCq"/>
      <point x="131" y="656" type="line" identifier="7exNZv1XSc"/>
    </contour>
  </outline>
</glyph>
<glyph name="M" format="2">
  <advance width="2036"/>
  <unicode hex="004D"/>
  <outline>
    <contour>
      <point x="873" y="193" type="line" identifier="0Dn4Xpf57M"/>
      <point x="420" y="1526" type="line"/>
      <point x="286" y="1526" type="line"/>
      <point x="286" y="0" type="line"/>
      <point x="184" y="0" type="line"/>
      <point x="184" y="1600" type="line"/>
      <point x="492" y="1600" type="line"/>
      <point x="938" y="270" type="line"/>
      <point x="1098" y="270" type="line" identifier="9aKZPM0HPh"/>
      <point x="1545" y="1600" type="line"/>
      <point x="1852" y="1600" type="line"/>
      <point x="1852" y="0" type="line"/>
      <point x="1750" y="0" type="line"/>
      <point x="1750" y="1526" type="line"/>
      <point x="1617" y="1526" type="line"/>
      <point x="1163" y="193" type="line" identifier="spdoeeCFft"/>
    </contour>
  </outline>
</glyph>
<glyph name="Q" format="2">
  <advance width="1568"/>
  <unicode hex="0051"/>
  <outline>
    <contour>
      <point x="1436" y="1600" type="line" identifier="c9brEFyXXA"/>
      <point x="261" y="1600" type="line" identifier="a4Ql951bxG"/>
      <point x="83" y="1306" type="line" identifier="kbL68Qh2zr"/>
      <point x="83" y="0" type="line" identifier="U6WibAQAUl"/>
      <point x="1436" y="0" type="line" identifier="dfgNHTgBfR"/>
    </contour>
    <contour>
      <point x="1328" y="74" type="line" identifier="jjd5iRDXWT"/>
      <point x="191" y="74" type="line" identifier="YbQKHpAtYn"/>
      <point x="191" y="1293" type="line" identifier="vdfGLkskOQ"/>
      <point x="340" y="1526" type="line" identifier="qXlVxK5ShE"/>
      <point x="1328" y="1526" type="line" identifier="g70r2r6DwY"/>
    </contour>
    <contour>
      <point x="723" y="-215" type="line"/>
      <point x="810" y="-215" type="line"/>
      <point x="810" y="2" type="line"/>
      <point x="723" y="2" type="line"/>
    </contour>
  </outline>
</glyph>
<glyph name="S" format="2">
  <advance width="1424"/>
  <unicode hex="0053"/>
  <outline>
    <contour>
      <point x="72" y="0" type="line" identifier="09VlJ0BjUX"/>
      <point x="1177" y="0" type="line" identifier="EagWihqFM8"/>
      <point x="1354" y="285" type="line"/>
      <point x="1354" y="842" type="line" identifier="KfNuQA7eZe"/>
      <point x="177" y="842" type="line" identifier="At364YZFEy"/>
      <point x="177" y="1291" type="line"/>
      <point x="329" y="1530" type="line"/>
      <point x="1241" y="1530" type="line" identifier="3ZUkG35meB"/>
      <point x="1241" y="1139" type="line" identifier="DTOJhFIl15"/>
      <point x="1349" y="1139" type="line" identifier="9KDcrfQ5Ui"/>
      <point x="1349" y="1600" type="line" identifier="SaF9ojRFrW"/>
      <point x="249" y="1600" type="line"/>
      <point x="70" y="1305" type="line"/>
      <point x="70" y="769" type="line" identifier="3sQ8t8BZ6b"/>
      <point x="1247" y="769" type="line" identifier="yiV6OCBLHg"/>
      <point x="1247" y="299" type="line"/>
      <point x="1095" y="71" type="line" identifier="9kdl9SYsn8"/>
      <point x="179" y="71" type="line" identifier="yZDWuX8LLe"/>
      <point x="179" y="417" type="line" identifier="jYb9001DTm"/>
      <point x="72" y="417" type="line" identifier="ho4DrS0rdW"/>
    </contour>
  </outline>
</glyph>
<glyph name="U" format="2">
  <advance width="1618"/>
  <unicode hex="0055"/>
  <outline>
    <contour>
      <point x="135" y="0" type="line" smooth="yes"/>
      <point x="1437" y="0" type="line" smooth="yes"/>
      <point x="1437" y="1600" type="line" smooth="yes"/>
      <point x="1330" y="1600" type="line" smooth="yes"/>
      <point x="1330" y="74" type="line"/>
      <point x="243" y="74" type="line" smooth="yes"/>
      <point x="243" y="1600" type="line"/>
      <point x="135" y="1600" type="line" smooth="yes"/>
    </contour>
  </outline>
</glyph>
<glyph name="X" format="2">
  <advance width="1498"/>
  <unicode hex="0058"/>
  <outline>
    <contour>
      <point x="1168" y="762" type="line"/>
      <point x="1307" y="648" type="line"/>
      <point x="1307" y="0" type="line"/>
      <point x="1414" y="0" type="line"/>
      <point x="1414" y="673" type="line"/>
      <point x="1267" y="797" type="line"/>
      <point x="1267" y="798" type="line"/>
      <point x="1411" y="798" type="line"/>
      <point x="1411" y="1600" type="line"/>
      <point x="1303" y="1600" type="line"/>
      <point x="1303" y="836" type="line"/>
      <point x="1174" y="836" type="line"/>
      <point x="324" y="836" type="line"/>
      <point x="195" y="938" type="line"/>
      <point x="195" y="1600" type="line"/>
      <point x="88" y="1600" type="line"/>
      <point x="88" y="915" type="line"/>
      <point x="231" y="799" type="line"/>
      <point x="231" y="799" type="line"/>
      <point x="84" y="799" type="line"/>
      <point x="84" y="0" type="line"/>
      <point x="191" y="0" type="line"/>
      <point x="191" y="762" type="line"/>
      <point x="329" y="762" type="line"/>
    </contour>
  </outline>
</glyph>
<glyph name="Z" format="2">
  <advance width="1566"/>
  <unicode hex="005A"/>
  <outline>
    <contour>
      <point x="136" y="0" type="line"/>
      <point x="1430" y="0" type="line" identifier="pzdvPTirLJ"/>
      <point x="1430" y="385" type="line" identifier="91SxUS0iwG"/>
      <point x="1323" y="385" type="line"/>
      <point x="1323" y="71" type="line"/>
      <point x="243" y="71" type="line"/>
      <point x="243" y="323" type="line"/>
      <point x="1426" y="1418" type="line" identifier="yyb1NCCI5w"/>
      <point x="1426" y="1600" type="line" identifier="5FogYRSgkk"/>
      <point x="141" y="1600" type="line" identifier="svlFvrau4c"/>
      <point x="141" y="1237" type="line" identifier="LQ9fBsTy9K"/>
      <point x="244" y="1237" type="line"/>
      <point x="244" y="1529" type="line"/>
      <point x="1318" y="1529" type="line"/>
      <point x="1318" y="1438" type="line"/>
      <point x="136" y="350" type="line" identifier="teVKnpBcVb"/>
    </contour>
  </outline>
</glyph>
<glyph name="F.wide" format="2">
  <advance width="1614"/>
  <outline>
    <contour>
      <point x="180" y="0" type="line" identifier="oAgH2tA6DJ"/>
      <point x="288" y="0" type="line" identifier="zCZyMcW5ho"/>
      <point x="288" y="733" type="line" identifier="yHYqkMd7LI"/>
      <point x="1347" y="733" type="line" identifier="NmB7yyQuio"/>
      <point x="1347" y="807" type="line" identifier="wQk2C8zPHh"/>
      <point x="288" y="807" type="line" identifier="4cFHKQfHDt"/>
      <point x="288" y="1526" type="line" identifier="ZvzwyrcwpS"/>
      <point x="1433" y="1526" type="line" identifier="4E754ovOIe"/>
      <point x="1433" y="1600" type="line" identifier="NUrIjqOB7J"/>
      <point x="180" y="1600" type="line" identifier="TBAYuCfUFX"/>
    </contour>
  </outline>
</glyph>
<glyph name="G.wide" format="2">
  <advance width="1545"/>
  <outline>
    <contour>
      <point x="131" y="0" type="line" identifier="7lPhzTnk2Z"/>
      <point x="1454" y="0" type="line" identifier="qJVLZGnkwh"/>
      <point x="1454" y="825" type="line" identifier="uek1NNj7De"/>
      <point x="953" y="825" type="line" identifier="qcvimxjndX"/>
      <point x="953" y="763" type="line" identifier="EARaY3Su65"/>
      <point x="1347" y="763" type="line" identifier="4m6dHLVhZq"/>
      <point x="1347" y="72" type="line" identifier="Y750RHTvDj"/>
      <point x="239" y="72" type="line" identifier="L2LsGnXiZ2"/>
      <point x="239" y="1200" type="line" identifier="sUWsr03vF4"/>
      <point x="394" y="1528" type="line" identifier="dbOUe6OhxL"/>
      <point x="1453" y="1528" type="line" identifier="5BjRbcud80"/>
      <point x="1453" y="1600" type="line" identifier="9eJelv8BOw"/>
      <point x="311" y="1600" type="line" identifier="lfZev3ICaC"/>
      <point x="131" y="1214" type="line" identifier="V1EWIdPahq"/>
    </contour>
  </outline>
</glyph>
<glyph name="I.narrow" format="2">
  <advance width="382"/>
  <outline>
    <contour>
      <point x="245" y="2" type="line" identifier="1m237t4hyw"/>
      <point x="245" y="1599" type="line" identifier="v7N4yg5XNk"/>
      <point x="137" y="1599" type="line" identifier="zfocDyDTCM"/>
      <point x="137" y="2" type="line" identifier="S4rO5KuHiL"/>
    </contour>
  </outline>
</glyph>
<glyph name="L.wide" format="2">
  <advance width="1434"/>
  <outline>
    <contour>
      <point x="182" y="0" type="line" identifier="XkJNfQlnnt"/>
      <point x="1298" y="0" type="line" identifier="82EXZEgt46"/>
      <point x="1298" y="74" type="line" identifier="cqpSxwFiM3"/>
      <point x="289" y="74" type="line" identifier="MbxRZRd8vz"/>
      <point x="289" y="1600" type="line" identifier="lYiaKSKITt"/>
      <point x="182" y="1600" type="line" identifier="XFf4mMUzYo"/>
    </contour>
  </outline>
</glyph>
<glyph name="M.narrow" format="2">
  <advance width="1976"/>
  <outline>
    <contour>
      <point x="1784" y="0" type="line" smooth="yes" identifier="12Pyby1xY2"/>
      <point x="1891" y="0" type="line" smooth="yes" identifier="5LJg4ajoG6"/>
      <point x="1891" y="1600" type="line" smooth="yes" identifier="ZqTZqAY3uY"/>
      <point x="315" y="1600" type="line" smooth="yes" identifier="R4lklfJsHA"/>
      <point x="134" y="1309" type="line" smooth="yes" identifier="7g7f8Wu7K4"/>
      <point x="134" y="0" type="line" smooth="yes" identifier="RTOJW56qXy"/>
      <point x="242" y="0" type="line" identifier="JfSFAkWGZC"/>
      <point x="242" y="1280" type="line" smooth="yes" identifier="WWvGwSpq0g"/>
      <point x="401" y="1526" type="line" smooth="yes" identifier="oee4nqI8Wl"/>
      <point x="960" y="1526" type="line" identifier="Ljn2lpvpG8"/>
      <point x="960" y="6" type="line" smooth="yes"/>
      <point x="1068" y="6" type="line"/>
      <point x="1068" y="1526" type="line" identifier="GlWB6PG54Z"/>
      <point x="1784" y="1526" type="line" identifier="iqeTRv7HXg"/>
    </contour>
  </outline>
</glyph>
<glyph name="N.wide" format="2">
  <advance width="1619"/>
  <outline>
    <contour>
      <point x="136" y="0" type="line" identifier="CkwYPPvJLv"/>
      <point x="244" y="0" type="line" identifier="oHTJsN7drZ"/>
      <point x="244" y="1511" type="line" identifier="wfBbYd10Pm"/>
      <point x="379" y="1511" type="line" identifier="MEnBDHq6zU"/>
      <point x="1254" y="0" type="line" identifier="3Nbopwznvn"/>
      <point x="1515" y="0" type="line" identifier="uKfuudIUvA"/>
      <point x="1515" y="1600" type="line" identifier="XRdLFXiM4t"/>
      <point x="1407" y="1600" type="line" identifier="MUSJPjCIXg"/>
      <point x="1407" y="92" type="line" identifier="VILP20cFmq"/>
      <point x="1271" y="92" type="line" identifier="z5b04GDwRN"/>
      <point x="398" y="1600" type="line" identifier="LL64NQ6WBE"/>
      <point x="136" y="1600" type="line" identifier="dzUaaP1sjt"/>
    </contour>
  </outline>
</glyph>
<glyph name="P.wide" format="2">
  <advance width="1454"/>
  <outline>
    <contour>
      <point x="110" y="0" type="line" identifier="EG08jqU5fb"/>
      <point x="217" y="0" type="line" identifier="osRzIFK2Cu"/>
      <point x="217" y="670" type="line" identifier="hIFVovVRwe"/>
      <point x="1364" y="670" type="line" identifier="Tt6D8zYZmU"/>
      <point x="1364" y="1600" type="line" identifier="6xW04auDFu"/>
      <point x="110" y="1600" type="line" identifier="eETO5GBD5v"/>
    </contour>
    <contour>
      <point x="217" y="746" type="line" identifier="PIBVN1PGv1"/>
      <point x="217" y="1526" type="line" identifier="IZIZQr2gYJ"/>
      <point x="1256" y="1526" type="line" identifier="2c4LCF1E1R"/>
      <point x="1256" y="746" type="line" identifier="1WCnzth1GX"/>
    </contour>
  </outline>
</glyph>
<glyph name="R.wide" format="2">
  <advance width="1557"/>
  <outline>
    <contour>
      <point x="1287" y="0" type="line"/>
      <point x="1395" y="0" type="line"/>
      <point x="1205" y="767" type="line"/>
      <point x="1105" y="766" type="line"/>
    </contour>
    <contour>
      <point x="177" y="0" type="line" identifier="EG08jqU5fb"/>
      <point x="284" y="0" type="line" identifier="osRzIFK2Cu"/>
      <point x="284" y="762" type="line" identifier="hIFVovVRwe"/>
      <point x="1421" y="762" type="line" identifier="Tt6D8zYZmU"/>
      <point x="1421" y="1600" type="line" identifier="6xW04auDFu"/>
      <point x="177" y="1600" type="line" identifier="eETO5GBD5v"/>
    </contour>
    <contour>
      <point x="284" y="836" type="line" identifier="PIBVN1PGv1"/>
      <point x="284" y="1526" type="line" identifier="IZIZQr2gYJ"/>
      <point x="1314" y="1526" type="line" identifier="2c4LCF1E1R"/>
      <point x="1314" y="836" type="line" identifier="1WCnzth1GX"/>
    </contour>
  </outline>
</glyph>
<glyph name="S.wide" format="2">
  <advance width="1407"/>
  <outline>
    <contour>
      <point x="72" y="0" type="line" identifier="09VlJ0BjUX"/>
      <point x="1161" y="0" type="line" identifier="EagWihqFM8"/>
      <point x="1337" y="285" type="line"/>
      <point x="1337" y="837" type="line" identifier="KfNuQA7eZe"/>
      <point x="177" y="837" type="line" identifier="At364YZFEy"/>
      <point x="177" y="1290" type="line"/>
      <point x="330" y="1530" type="line"/>
      <point x="1332" y="1530" type="line" identifier="3ZUkG35meB"/>
      <point x="1332" y="1600" type="line" identifier="SaF9ojRFrW"/>
      <point x="249" y="1600" type="line"/>
      <point x="71" y="1305" type="line"/>
      <point x="71" y="765" type="line" identifier="3sQ8t8BZ6b"/>
      <point x="1230" y="765" type="line" identifier="yiV6OCBLHg"/>
      <point x="1230" y="299" type="line"/>
      <point x="1078" y="71" type="line" identifier="9kdl9SYsn8"/>
      <point x="72" y="71" type="line" identifier="yZDWuX8LLe"/>
    </contour>
  </outline>
</glyph>
<glyph name="S.wideskinny" format="2">
  <advance width="1528"/>
  <outline>
    <contour>
      <point x="133" y="0" type="line" identifier="09VlJ0BjUX"/>
      <point x="1221" y="0" type="line" identifier="EagWihqFM8"/>
      <point x="1397" y="284" type="line"/>
      <point x="1397" y="833" type="line" identifier="KfNuQA7eZe"/>
      <point x="238" y="833" type="line" identifier="At364YZFEy"/>
      <point x="238" y="1290" type="line"/>
      <point x="390" y="1530" type="line"/>
      <point x="1392" y="1530" type="line" identifier="3ZUkG35meB"/>
      <point x="1392" y="1600" type="line" identifier="SaF9ojRFrW"/>
      <point x="309" y="1600" type="line"/>
      <point x="131" y="1305" type="line"/>
      <point x="131" y="766" type="line" identifier="3sQ8t8BZ6b"/>
      <point x="1290" y="766" type="line" identifier="yiV6OCBLHg"/>
      <point x="1290" y="299" type="line"/>
      <point x="1138" y="71" type="line" identifier="9kdl9SYsn8"/>
      <point x="133" y="71" type="line" identifier="yZDWuX8LLe"/>
    </contour>
  </outline>
</glyph>
<glyph name="U.alt" format="2">
  <advance width="1521"/>
  <outline>
    <contour>
      <point x="1304" y="1600" type="line" smooth="yes"/>
      <point x="1304" y="74" type="line"/>
      <point x="211" y="74" type="line" smooth="yes"/>
      <point x="211" y="1600" type="line"/>
      <point x="103" y="1600" type="line" smooth="yes"/>
      <point x="103" y="0" type="line" smooth="yes"/>
      <point x="1411" y="0" type="line" smooth="yes"/>
      <point x="1411" y="1600" type="line" smooth="yes"/>
    </contour>
  </outline>
</glyph>
<glyph name="Y.wide" format="2">
  <advance width="1643"/>
  <outline>
    <contour>
      <point x="180" y="0" type="line"/>
      <point x="1466" y="0" type="line" identifier="oOtn61SmRY"/>
      <point x="1466" y="1600" type="line" identifier="8OglXgblhr"/>
      <point x="1359" y="1600" type="line" identifier="db0bPhBdaU"/>
      <point x="1359" y="841" type="line" identifier="MTAeavIVWY"/>
      <point x="286" y="841" type="line" identifier="lggLiivmLt"/>
      <point x="286" y="1600" type="line" identifier="UPaHY3UudR"/>
      <point x="179" y="1600" type="line" identifier="ZnCDQVdtyD"/>
      <point x="179" y="769" type="line" identifier="uqAJBjDIOT"/>
      <point x="1359" y="769" type="line" identifier="7JgTtdb0jg"/>
      <point x="1359" y="72" type="line"/>
      <point x="180" y="72" type="line"/>
    </contour>
  </outline>
</glyph>
<glyph name="Z.wide" format="2">
  <advance width="1546"/>
  <outline>
    <contour>
      <point x="140" y="0" type="line"/>
      <point x="1408" y="0" type="line" identifier="pzdvPTirLJ"/>
      <point x="1408" y="71" type="line"/>
      <point x="254" y="71" type="line"/>
      <point x="254" y="343" type="line"/>
      <point x="1397" y="1362" type="line" identifier="yyb1NCCI5w"/>
      <point x="1397" y="1600" type="line" identifier="5FogYRSgkk"/>
      <point x="140" y="1600" type="line" identifier="svlFvrau4c"/>
      <point x="140" y="1529" type="line"/>
      <point x="1276" y="1529" type="line"/>
      <point x="1276" y="1387" type="line"/>
      <point x="140" y="373" type="line" identifier="teVKnpBcVb"/>
    </contour>
  </outline>
</glyph>
<glyph name="nine.wide" format="2">
  <advance width="1545"/>
  <outline>
    <contour>
      <point x="131" y="0" type="line" identifier="oGvEEuxnYv"/>
      <point x="1436" y="0" type="line" identifier="xR3pEHbMJx"/>
      <point x="1436" y="1600" type="line" identifier="uiw6aBUf4P"/>
      <point x="130" y="1600" type="line" identifier="jtYkxiUX6G"/>
      <point x="130" y="765" type="line" identifier="2G5L37c87I"/>
      <point x="1328" y="765" type="line"/>
      <point x="1328" y="72" type="line"/>
      <point x="131" y="72" type="line"/>
    </contour>
    <contour>
      <point x="238" y="835" type="line"/>
      <point x="238" y="1528" type="line"/>
      <point x="1328" y="1528" type="line"/>
      <point x="1328" y="835" type="line"/>
    </contour>
  </outline>
</glyph>
<glyph name="one.narrow" format="2">
  <advance width="908"/>
  <outline>
    <contour>
      <point x="773" y="0" type="line" identifier="5nmxQXofSG"/>
      <point x="773" y="1600" type="line" identifier="4rjIeWbSbx"/>
      <point x="71" y="1600" type="line"/>
      <point x="71" y="1526" type="line"/>
      <point x="665" y="1526" type="line"/>
      <point x="665" y="0" type="line"/>
    </contour>
  </outline>
</glyph>
<glyph name="seven.alt" format="2">
  <advance width="1418"/>
  <outline>
    <contour>
      <point x="127" y="1600" type="line" identifier="jiO9eX9U07"/>
      <point x="1278" y="1600" type="line" identifier="wgpFs1yguc"/>
      <point x="1278" y="0" type="line" identifier="d5Di3vNzni"/>
      <point x="1171" y="0" type="line" identifier="46RrD1WET2"/>
      <point x="1171" y="1526" type="line" identifier="zFXsE8BUYG"/>
      <point x="231" y="1526" type="line" identifier="NQmE31PUns"/>
      <point x="231" y="952" type="line" identifier="qiXxY6YhCq"/>
      <point x="127" y="952" type="line" identifier="7exNZv1XSc"/>
    </contour>
  </outline>
</glyph>
<glyph name="six.wide" format="2">
  <advance width="1528"/>
  <outline>
    <contour>
      <point x="114" y="0" type="line" identifier="uiw6aBUf4P"/>
      <point x="1431" y="0" type="line" identifier="jtYkxiUX6G"/>
      <point x="1431" y="827" type="line" identifier="2G5L37c87I"/>
      <point x="221" y="827" type="line"/>
      <point x="221" y="1306" type="line"/>
      <point x="373" y="1528" type="line"/>
      <point x="1431" y="1528" type="line"/>
      <point x="1431" y="1600" type="line" identifier="oGvEEuxnYv"/>
      <point x="287" y="1600" type="line" identifier="xR3pEHbMJx"/>
      <point x="114" y="1321" type="line" identifier="KnMArb0tv8"/>
    </contour>
    <contour>
      <point x="1323" y="763" type="line"/>
      <point x="1323" y="72" type="line"/>
      <point x="221" y="72" type="line"/>
      <point x="221" y="763" type="line"/>
    </contour>
  </outline>
</glyph>
<glyph name="three.wide" format="2">
  <advance width="1658"/>
  <outline>
    <contour>
      <point x="140" y="0" type="line" identifier="O9abUc1nmN"/>
      <point x="1476" y="0" type="line" identifier="kMJYMTfXCq"/>
      <point x="1476" y="838" type="line" identifier="su2XmdS8e8"/>
      <point x="1350" y="838" type="line" identifier="JQaOzDQqlF"/>
      <point x="1350" y="1600" type="line" identifier="xg8x2Ki40p"/>
      <point x="151" y="1600" type="line" identifier="pE1XSRiy68"/>
      <point x="151" y="1528" type="line" identifier="7ogBYufWpl"/>
      <point x="1242" y="1528" type="line" identifier="RHLvSX2Jv6"/>
      <point x="1242" y="838" type="line" identifier="iic1IBkDqp"/>
      <point x="351" y="838" type="line" identifier="lRLJEhXMlO"/>
      <point x="351" y="768" type="line" identifier="8aKgEELrVU"/>
      <point x="1368" y="768" type="line" identifier="Dm8zjmbhNr"/>
      <point x="1368" y="72" type="line" identifier="xv9CFHiFgB"/>
      <point x="140" y="72" type="line" identifier="YajKQV3MHP"/>
    </contour>
  </outline>
</glyph>
<glyph name="two.wide" format="2">
  <advance width="1535"/>
  <outline>
    <contour>
      <point x="148" y="0" type="line"/>
      <point x="1410" y="0" type="line" identifier="pzdvPTirLJ"/>
      <point x="1410" y="72" type="line"/>
      <point x="256" y="72" type="line"/>
      <point x="256" y="764" type="line"/>
      <point x="1401" y="764" type="line" identifier="yyb1NCCI5w"/>
      <point x="1401" y="1600" type="line" identifier="5FogYRSgkk"/>
      <point x="152" y="1600" type="line" identifier="svlFvrau4c"/>
      <point x="152" y="1528" type="line"/>
      <point x="1294" y="1528" type="line"/>
      <point x="1294" y="834" type="line"/>
      <point x="148" y="834" type="line" identifier="teVKnpBcVb"/>
    </contour>
  </outline>
</glyph>
